<!DOCTYPE svg PUBLIC "-//W3C//DTD SVG 1.1//EN" "http://www.w3.org/Graphics/SVG/1.1/DTD/svg11.dtd">
<!-- Uploaded to: SVG Repo, www.svgrepo.com, Transformed by: SVG Repo Mixer Tools -->
<svg width="256px" height="256px" viewBox="-5.28 -5.28 26.56 26.56" fill="none" xmlns="http://www.w3.org/2000/svg" stroke="#17d350" stroke-width="0.00016">
<g id="SVGRepo_bgCarrier" stroke-width="0">
<path transform="translate(-5.28, -5.28), scale(0.83)" d="M16,27.685178092547826C17.75253543610333,27.519950790256463,19.518027267381605,28.168910356456465,21.223018616736958,27.731091883977534C23.03249303613094,27.266443587322946,24.630784914771528,26.248771072342663,26.09788738741755,25.09217864249491C27.70940281080269,23.82173804681618,29.395919095362313,22.497776862765484,30.23612371367516,20.625596992581407C31.094823745033572,18.71220485190996,31.557083739421834,16.42103737336195,30.880198661343712,14.43602809909813C30.199572525425285,12.440047930735634,27.728798694033674,11.659839225736242,26.576540211878783,9.893631661576887C25.49868602495568,8.24147266471345,25.582518067898658,6.031026735665599,24.377779891145348,4.468975224140591C23.046924361967502,2.743401210560251,21.481271013419768,0.5103305458491288,19.302629212929467,0.462351164408938C16.971121701793415,0.4110052808486895,15.618683751885929,3.259020710664297,13.49807658018587,4.229375747533123C11.875574380124421,4.971806124630358,9.910785412808464,4.605211987876207,8.351862751266083,5.473242165560491C6.730928984680047,6.375801003233709,5.472766347984343,7.789943337267081,4.393454685067784,9.298957938062287C3.258352058762726,10.88597538200122,2.3140058919283746,12.613163971939853,1.8838576649032213,14.516333654968202C1.4317571393090893,16.516630203770713,1.3632124010117745,18.60639635745882,1.8389583583443745,20.60120134854828C2.329561698739632,22.658303415274677,3.1464958646253427,24.73492820115106,4.670576533113374,26.20105870914756C6.176649409858862,27.649866136154138,8.247184511041999,28.48764530845522,10.319289517185783,28.759084646303876C12.25118193206116,29.012156568978543,14.060204169229966,27.86806011907437,16,27.685178092547826" fill="#7ed0ec" strokewidth="0"/>
</g>
<g id="SVGRepo_tracerCarrier" stroke-linecap="round" stroke-linejoin="round"/>
<g id="SVGRepo_iconCarrier"> <path d="M2 16V0H5V7.42597L11.3258 0H15.2667L9.5652 6.69312L15.1492 15.9998H11.6506L7.51246 9.10285L5 12.0523V16H2Z" fill="#000000"/> </g>
</svg>